<?xml version="1.0" standalone="no"?>
<!DOCTYPE svg PUBLIC "-//W3C//DTD SVG 20010904//EN"
 "http://www.w3.org/TR/2001/REC-SVG-20010904/DTD/svg10.dtd">
<svg version="1.0" xmlns="http://www.w3.org/2000/svg"
 width="700.000000pt" height="700.000000pt" viewBox="0 0 700.000000 700.000000"
 preserveAspectRatio="xMidYMid meet">
<metadata>
Created by potrace 1.11, written by Peter Selinger 2001-2013
</metadata>
<g transform="translate(0.000000,700.000000) scale(0.100000,-0.100000)"
fill="#000000" stroke="none">
<path d="M3278 6996 c-1 -2 -41 -6 -88 -10 -87 -7 -105 -9 -225 -27 -116 -18
-123 -19 -192 -35 -154 -34 -203 -47 -313 -81 -210 -64 -509 -194 -685 -298
-33 -19 -68 -38 -77 -41 -10 -4 -18 -10 -18 -15 0 -5 -5 -9 -11 -9 -15 0 -206
-131 -322 -221 -485 -378 -868 -887 -1097 -1460 -66 -165 -142 -408 -165 -530
-3 -13 -11 -58 -20 -99 -22 -115 -30 -160 -41 -255 -26 -230 -26 -666 1 -826
2 -13 6 -46 9 -74 9 -78 23 -156 51 -285 31 -142 109 -393 175 -555 49 -123
173 -370 235 -468 30 -49 55 -90 55 -93 0 -3 4 -10 10 -17 5 -7 46 -64 91
-126 173 -245 380 -469 619 -668 81 -67 304 -233 314 -233 3 0 32 -18 65 -40
33 -22 63 -40 67 -40 4 0 15 -6 23 -14 25 -22 281 -150 404 -202 165 -70 441
-158 591 -190 97 -21 215 -41 276 -49 25 -3 56 -7 69 -10 135 -26 700 -26 839
0 16 3 104 15 147 20 209 27 592 141 843 252 136 60 324 156 361 185 13 10 28
18 33 18 5 0 14 5 21 10 7 6 62 43 122 83 247 164 480 366 660 571 33 38 67
76 75 85 8 9 31 37 50 61 19 25 38 50 43 55 121 150 294 433 387 630 111 238
213 532 256 740 16 79 54 301 59 350 4 33 9 71 11 85 9 47 11 525 3 605 -15
165 -21 220 -24 225 -2 3 -6 30 -10 60 -3 30 -10 71 -15 90 -5 19 -12 51 -15
70 -12 71 -65 268 -100 375 -347 1042 -1160 1864 -2195 2218 -123 42 -292 89
-405 112 -44 9 -89 19 -100 21 -11 2 -38 6 -60 9 -22 3 -51 7 -65 10 -13 2
-52 7 -86 11 -33 3 -74 8 -90 10 -33 5 -540 14 -546 10z m132 -507 c0 -3 -73
-131 -161 -285 -89 -153 -173 -299 -187 -324 -14 -25 -106 -184 -205 -355 -98
-170 -198 -343 -220 -382 l-42 -73 -823 0 -823 0 12 23 c25 48 132 197 212
297 128 159 345 373 477 470 18 14 45 34 59 46 88 72 378 247 482 292 24 11
69 31 99 45 226 104 572 203 785 223 33 4 63 8 66 10 3 2 48 6 100 10 52 4 95
7 96 8 6 5 73 1 73 -5z m360 -4 c47 -3 94 -8 105 -10 11 -2 43 -7 70 -10 28
-3 93 -15 146 -26 52 -11 104 -21 115 -23 41 -8 239 -68 317 -97 256 -93 512
-228 732 -388 50 -36 92 -68 95 -71 3 -3 16 -13 29 -22 69 -48 270 -241 377
-363 103 -118 294 -378 294 -400 0 -3 -370 -5 -823 -5 l-824 0 -14 27 c-8 16
-56 99 -106 186 -51 88 -93 160 -93 162 0 2 -19 33 -41 71 -23 37 -53 88 -67
113 -31 57 -457 795 -483 837 l-19 31 52 -3 c29 -1 91 -5 138 -9z m-243 -712
c11 -21 62 -110 113 -198 51 -88 150 -260 220 -382 l129 -223 -489 0 -489 0
105 183 c58 100 109 189 114 197 6 8 50 85 99 170 49 85 98 171 110 190 11 19
28 50 38 68 9 17 20 32 23 32 3 0 15 -17 27 -37z m-2243 -1572 c249 -433 402
-709 397 -715 -4 -6 -104 -177 -221 -381 -553 -958 -592 -1025 -600 -1025 -9
0 -112 225 -162 353 -129 336 -189 657 -193 1027 -1 113 2 241 6 285 16 159
18 176 29 238 16 92 49 248 59 282 5 17 21 71 36 120 32 109 98 278 155 400
52 108 71 139 80 128 5 -4 191 -325 414 -712z m4928 579 c128 -270 237 -643
263 -897 2 -21 7 -69 11 -108 16 -135 8 -555 -11 -656 -2 -9 -6 -39 -10 -66
-9 -66 -43 -238 -56 -287 -36 -129 -76 -254 -114 -351 -48 -124 -140 -321
-154 -329 -7 -5 -202 318 -281 466 -8 15 -81 142 -161 280 -81 139 -201 346
-267 460 l-120 207 287 498 c589 1021 533 928 549 907 7 -11 36 -66 64 -124z
m-3764 -162 c-13 -24 -60 -105 -104 -180 -43 -76 -83 -146 -89 -156 -5 -9 -31
-53 -56 -97 -57 -98 -72 -124 -144 -250 -31 -55 -60 -104 -64 -108 -9 -9 -21
4 -51 58 -12 22 -88 153 -168 290 -153 264 -160 275 -212 370 -19 33 -42 72
-52 88 l-19 27 491 0 492 0 -24 -42z m1840 -166 c66 -114 129 -224 140 -244
12 -20 32 -55 46 -77 15 -22 26 -43 26 -46 0 -4 22 -42 90 -155 35 -59 176
-306 179 -315 2 -5 7 -12 10 -15 3 -3 18 -28 34 -56 26 -50 26 -52 9 -75 -10
-13 -30 -44 -44 -69 -13 -25 -156 -273 -317 -551 l-292 -506 -669 -1 -669 0
-68 116 c-37 65 -107 187 -156 272 -105 181 -96 166 -222 385 -235 406 -225
386 -210 409 7 12 94 161 192 331 99 171 243 421 322 557 l143 247 668 0 669
0 119 -207z m1212 200 c0 -4 -15 -32 -33 -62 -18 -30 -36 -62 -40 -70 -4 -8
-15 -28 -26 -45 -10 -16 -46 -79 -81 -140 -35 -60 -86 -150 -114 -198 -58
-100 -51 -89 -130 -224 l-59 -102 -40 67 c-21 37 -50 87 -64 112 -14 25 -101
176 -193 335 -92 160 -172 300 -179 312 l-12 23 486 -1 c267 0 485 -3 485 -7z
m-3432 -1609 c44 -76 89 -154 99 -173 11 -19 34 -58 50 -86 17 -27 41 -70 55
-95 14 -24 58 -100 98 -169 39 -69 78 -137 86 -151 l13 -27 -485 0 c-404 0
-485 2 -480 14 3 7 40 73 82 146 42 73 84 147 94 163 9 17 61 107 115 200 54
94 117 203 139 242 23 40 44 73 47 73 4 0 43 -62 87 -137z m2970 115 c17 -35
63 -115 105 -188 53 -90 47 -80 131 -225 41 -71 108 -188 150 -259 41 -71 73
-133 71 -137 -3 -4 -221 -7 -485 -7 l-479 0 16 32 c9 17 99 175 201 351 102
176 203 350 224 388 21 37 42 67 47 67 4 0 13 -10 19 -22z m-1149 -1300 c-55
-95 -164 -284 -242 -420 -78 -136 -144 -248 -147 -248 -3 0 -57 91 -121 203
-64 111 -173 300 -242 420 l-126 217 489 0 489 0 -100 -172z m-1134 -205 c88
-153 165 -287 171 -298 6 -11 67 -117 136 -235 69 -118 136 -235 150 -260 14
-25 64 -112 112 -193 47 -82 86 -152 86 -157 0 -9 -86 -5 -235 11 -171 19
-200 24 -315 51 -47 11 -92 21 -100 23 -149 31 -403 126 -590 219 -157 79
-180 92 -315 181 -270 177 -489 376 -694 630 -69 85 -211 287 -211 299 0 3
370 6 823 6 l822 0 160 -277z m3295 271 c0 -10 -138 -207 -195 -279 -285 -357
-655 -656 -1040 -839 -256 -122 -462 -191 -735 -247 -165 -34 -490 -66 -490
-48 0 4 47 88 103 186 57 98 115 198 129 223 14 25 64 112 112 193 47 82 86
151 86 154 0 3 14 25 30 50 17 24 30 46 30 49 0 2 20 37 43 77 24 39 97 165
163 280 l119 207 822 0 c453 0 823 -3 823 -6z"/>
</g>
</svg>
