<?xml version="1.0" encoding="iso-8859-1"?>
<!-- Generator: Adobe Illustrator 19.0.0, SVG Export Plug-In . SVG Version: 6.00 Build 0)  -->
<svg xmlns="http://www.w3.org/2000/svg" xmlns:xlink="http://www.w3.org/1999/xlink" version="1.1" id="Capa_1" x="0px" y="0px" viewBox="0 0 511.976 511.976" style="enable-background:new 0 0 511.976 511.976;" xml:space="preserve" width="512" height="512">
<g>
	<polygon points="151.027,151.027 177.403,95.506 50.259,50.259 95.506,177.403  "/>
	<polygon points="360.949,151.027 416.47,177.403 461.716,50.259 334.573,95.506  "/>
	<polygon points="360.949,360.949 334.573,416.47 461.716,461.716 416.47,334.573  "/>
	<polygon points="151.027,360.949 95.506,334.573 50.259,461.716 177.403,416.47  "/>
	<path d="M338.432,173.543L255.988,0l-82.444,173.543L0,255.988l173.543,82.444l82.444,173.543l82.444-173.543l173.543-82.444   L338.432,173.543z M255.988,314.954c-15.75,0-30.558-6.133-41.696-17.271c-22.991-22.991-22.991-60.4,0-83.391   c11.138-11.138,25.946-17.271,41.696-17.271c15.751,0,30.559,6.134,41.695,17.271c22.991,22.991,22.991,60.4,0,83.391   C286.547,308.82,271.739,314.954,255.988,314.954z"/>
	<path d="M255.988,227.022c-7.737,0-15.012,3.013-20.483,8.484c-11.294,11.293-11.294,29.67,0,40.964   c5.471,5.471,12.746,8.484,20.483,8.484s15.011-3.013,20.481-8.484c11.294-11.294,11.294-29.671,0-40.965   C270.999,230.034,263.726,227.022,255.988,227.022z"/>
</g>















</svg>
