<svg id="Layer_1" enable-background="new 0 0 496.83 496.83" height="512" viewBox="0 0 496.83 496.83" width="512" xmlns="http://www.w3.org/2000/svg"><path d="m400.067 374.29c-42.081 36.617-95.328 56.611-151.651 56.611-56.221 0-109.377-19.918-151.422-56.408l-26.632 89.563c-4.862 16.351 7.388 32.774 24.447 32.774h309.059c17.228 0 29.5-16.727 24.328-33.161z"/><g><path d="m327.172 212.426-4.104-8.316-4.104 8.316c-2.185 4.427-6.408 7.495-11.294 8.205l-9.179 1.334 6.642 6.474c3.535 3.446 5.147 8.411 4.313 13.276l-1.567 9.141 8.208-4.316c2.186-1.148 4.583-1.723 6.98-1.723s4.795.574 6.98 1.723l8.208 4.316-1.567-9.141c-.834-4.865.778-9.83 4.313-13.276l6.642-6.474-9.178-1.334c-4.885-.71-9.107-3.778-11.293-8.205z"/><path d="m248.415 0c-109.997 0-199.487 89.489-199.487 199.486s89.49 199.487 199.487 199.487c109.998 0 199.486-89.49 199.486-199.487s-89.488-199.486-199.486-199.486zm-120.771 273.161c-9.384 0-16.992-7.607-16.992-16.992 0-9.384 7.607-16.992 16.992-16.992 9.384 0 16.992 7.607 16.992 16.992s-7.607 16.992-16.992 16.992zm78.65-104.695h-24.325v38.687c0 8.284-6.716 15-15 15s-15-6.716-15-15v-38.687h-24.324c-8.284 0-15-6.716-15-15s6.716-15 15-15h24.324v-38.687c0-8.284 6.716-15 15-15s15 6.716 15 15v38.687h24.325c8.284 0 15 6.716 15 15s-6.716 15-15 15zm149.785-68.687c9.384 0 16.992 7.607 16.992 16.992s-7.607 16.992-16.992 16.992-16.992-7.607-16.992-16.992 7.607-16.992 16.992-16.992zm11.511 144.637 5.372 31.324c.965 5.627-1.349 11.314-5.968 14.671-2.612 1.898-5.708 2.864-8.818 2.864-2.388 0-4.783-.569-6.979-1.723l-28.13-14.79-28.13 14.79c-5.056 2.656-11.178 2.214-15.797-1.142s-6.933-9.044-5.968-14.671l5.372-31.324-22.758-22.184c-4.088-3.985-5.56-9.946-3.795-15.377 1.765-5.43 6.458-9.388 12.108-10.208l31.451-4.57 14.064-28.499c2.527-5.12 7.741-8.361 13.451-8.361 5.709 0 10.924 3.241 13.451 8.361l14.065 28.499 31.45 4.57c5.65.82 10.344 4.778 12.108 10.208 1.765 5.431.293 11.392-3.795 15.377z"/></g></svg>