<!--?xml version="1.0" encoding="utf-8"?-->
<!-- Generator: Adobe Illustrator 18.1.1, SVG Export Plug-In . SVG Version: 6.00 Build 0)  -->

<svg version="1.1" id="_x32_" xmlns="http://www.w3.org/2000/svg" xmlns:xlink="http://www.w3.org/1999/xlink" x="0px" y="0px" viewBox="0 0 512 512" style="width: 256px; height: 256px; opacity: 1;" xml:space="preserve">
<style type="text/css">
	.st0{fill:#4B4B4B;}
</style>
<g>
	<path class="st0" d="M403.228,512c0.025-14.432-3.134-26.324-8.598-35.788c-4.076-7.102-9.38-12.742-15.129-17.163
		c-8.632-6.631-18.172-10.649-26.896-13.64c-8.716-2.967-16.76-5.009-22.072-7.018c-2.143-0.782-4.857-2.337-7.547-4.388
		c-4.051-3.068-8.044-7.279-10.75-11.17c-1.362-1.95-2.395-3.816-3.016-5.295c-0.622-1.454-0.765-2.522-0.74-2.614
		c0-5.766,0,0.235,0-9.026c1.572-1.538,3.522-3.37,5.707-5.464c5.312-5.085,11.892-11.616,17.742-19.92
		c2.278-3.219,4.37-6.816,6.296-10.615c8.993,9.784,22.054,15.264,38.2,15.264c23.012,0,48.563-28.131,51.127-48.588
		c-16.827,8.06-43.126,8.127-43.126-25.106c0-10.506,0.026-22.348-0.353-34.771c60.498-9.472,100.245-25.475,100.245-43.612
		c0-21.332-54.934-39.68-133.915-47.976L268.835,8.565C266.683,3.379,261.615,0,256,0c-5.615,0-10.682,3.379-12.826,8.565
		l-81.578,176.544c-78.972,8.296-133.915,26.644-133.915,47.976c0,18.138,39.738,34.132,100.229,43.612
		c-0.37,12.423-0.354,24.265-0.354,34.771c0,33.233-26.29,33.166-43.116,25.106c2.554,20.457,28.114,48.588,51.118,48.588
		c16.137,0,29.182-5.455,38.166-15.213c3.564,7.044,7.951,13.137,12.355,18.28c4.077,4.774,8.187,8.816,11.717,12.204
		c2.202,2.093,4.143,3.926,5.707,5.464c0,9.262,0,3.261,0,9.026l-0.033,0.303c-0.11,0.806-0.892,2.916-2.346,5.252
		c-2.143,3.556-5.656,7.75-9.38,11.111c-3.69,3.395-7.774,5.968-10.119,6.741c-4.816,1.714-11.767,3.48-19.382,5.917
		c-11.422,3.698-24.635,8.952-35.384,19.525c-5.363,5.27-9.986,11.901-13.171,19.936c-3.185,8.044-4.926,17.432-4.926,28.266
		 M326.483,347.189c-2.134,11.473-8.026,20.928-14.818,28.871c-3.429,4.018-7.06,7.607-10.43,10.826
		c-3.379,3.244-6.472,6.043-9.094,8.942l-2.395,2.673v3.598c0,11.246,0,6.27,0,12.826c0.025,2.69,0.546,5.118,1.311,7.439
		L255.992,459.2l-35.091-36.847c0.79-2.294,1.328-4.715,1.354-7.43c0-6.556,0-1.58,0-12.826V398.5l-2.404-2.673
		c-2.622-2.899-5.716-5.698-9.086-8.942c-5.06-4.825-10.691-10.498-15.39-17.171c-4.614-6.548-8.254-13.961-9.859-22.551
		c1.312-5.379,2.009-11.262,2.009-17.566c0-16.381,0-33.174,0-46.243c21.617,1.563,44.613,2.412,68.475,2.412
		c23.853,0,46.848-0.85,68.466-2.412c0,13.069,0,29.862,0,46.243C324.466,335.918,325.164,341.793,326.483,347.189z" style="fill: black;"></path>
</g>
</svg>
