<svg id="Capa_1" enable-background="new 0 0 512 512" height="512" viewBox="0 0 512 512" width="512" xmlns="http://www.w3.org/2000/svg"><g><path d="m179.41 78.464 5.867 2.052c22.792 7.972 46.591 12.014 70.736 12.014s47.944-4.042 70.736-12.014l5.867-2.052c7.383-2.583 15.048-3.892 22.782-3.892 14.377 0 27.732 4.447 38.781 12.028v-86.6l-34.473 34.473-34.091-34.091-34.473 34.473-34.803-34.803-34.721 34.721-34.494-34.494-34.514 34.514-34.763-34.762v86.574c11.381-7.812 24.793-12.035 38.784-12.034 7.734.001 15.398 1.311 22.779 3.893z"/><path d="m149.711 383.64h212.604c17.598 0 31.864-14.266 31.864-31.864v-208.337c0-26.749-26.409-45.489-51.658-36.658l-5.867 2.052c-52.21 18.262-109.072 18.262-161.282 0l-5.867-2.052c-25.249-8.832-51.658 9.909-51.658 36.658v208.337c0 17.598 14.266 31.864 31.864 31.864zm191.496-48.728h-170.388v-30h16.054l-8.006-30.17 28.996-7.694 10.047 37.864h76.206l10.047-37.864 28.996 7.694-8.006 30.17h16.052v30zm-175.564-169.316h180.74v30h-21.732v30.564h-30v-30.564h-77.276v30.564h-30v-30.564h-21.732z"/><path d="m448.26 366.438h-25.851c-6.603 27.056-31.033 47.202-60.094 47.202h-212.604c-29.06 0-53.491-20.146-60.094-47.202h-25.851c-35.196 0-63.728 28.532-63.728 63.728v81.834h80.592v-60.913h30v60.913h130.383v-37.195h30v37.195h130.382v-60.913h30v60.913h80.593v-81.834c0-35.196-28.532-63.728-63.728-63.728z"/><path d="m39.119 238.081v70.611h30v-40.611l18.728 18.728v-90.351l-69.056-69.056-.113.113c-24.887 24.887-24.887 65.238 0 90.125z"/><path d="m442.907 308.691h30v-70.636l20.415-20.415c24.887-24.887 24.887-65.238 0-90.125l-.113-.113-69.03 69.03v90.351l18.728-18.728z"/></g></svg>