<svg id="Capa_1" enable-background="new 0 0 511.621 511.621" height="512" viewBox="0 0 511.621 511.621" width="512" xmlns="http://www.w3.org/2000/svg"><g id="XMLID_917_"><path id="XMLID_918_" d="m131.514 370.997c-4.191-8.734-7.717-17.802-10.581-27.082l-82.783 82.783-22.435 77.077 77.077-22.435 67.056-67.057c-11.275-13.131-20.867-27.725-28.334-43.286z"/><path id="XMLID_919_" d="m497.743 21.748c-8.964-8.964-20.883-13.901-33.561-13.901-12.677 0-24.596 4.937-33.561 13.901-7.308 7.309-11.955 16.753-13.399 26.831l53.698 53.698c10.077-1.455 19.542-6.128 26.823-13.409 18.504-18.506 18.504-48.616 0-67.12z"/><path id="XMLID_920_" d="m375.429 50.113-21.213 21.213 19.653 19.653-26.563 26.563h52.054v57.23l29.151-29.151 19.653 19.654 21.213-21.213z"/><path id="XMLID_924_" d="m379.806 370.94c-7.46 15.498-17.025 30.031-28.265 43.112l67.288 67.288 77.077 22.435-22.435-77.077-82.999-82.999c-2.884 9.336-6.438 18.458-10.666 27.241z"/><path id="XMLID_925_" d="m112.063 117.542h52.252l-26.563-26.563 19.653-19.653-21.213-21.213-93.948 93.949 21.213 21.213 19.653-19.653 28.953 28.952z"/><path id="XMLID_926_" d="m94.374 48.417c-1.471-10.018-6.106-19.4-13.375-26.67-8.965-8.964-20.884-13.901-33.561-13.901-12.678 0-24.597 4.937-33.561 13.901-18.504 18.505-18.504 48.615 0 67.12 7.243 7.243 16.646 11.903 26.663 13.384z"/><path id="XMLID_930_" d="m369.36 147.542h-227.297v137.963c0 51.114 22.869 98.771 62.744 130.75l50.609 40.588 50.884-40.607c40.076-31.981 63.061-79.729 63.061-131.003v-137.691zm-86.148 239.762-27.739 22.136-27.509-22.062c-31.068-24.917-48.888-62.048-48.888-101.874v-100.947h153.27v100.676c0 39.95-17.909 77.153-49.134 102.071z"/><path id="XMLID_931_" d="m209.076 285.505c0 30.676 13.726 59.278 37.657 78.471l8.786 7.046 8.979-7.166c24.052-19.194 37.847-47.851 37.847-78.623v-70.676h-93.27v70.948z"/></g></svg>